<svg xmlns="http://www.w3.org/2000/svg" xmlns:xlink="http://www.w3.org/1999/xlink" id="edjfZw3Vtoe1" viewBox="0 0 584 427" shape-rendering="geometricPrecision" text-rendering="geometricPrecision"><g transform="matrix(.1 0 0-.1 0 427)"><g id="edjfZw3Vtoe3"><path d="M5423,3245c-34-36-75-92-93-129-35-70-49-139-31-150c48-30,251,224,251,314c0,27-3,30-32,30-27,0-43-11-95-65Z" fill="#00367d"/><path d="M5087,2803c-72-80-128-353-72-353c20,0,36,35,79,167c50,156,47,245-7,186Z" fill="#00367d"/><path d="M4899,2223c-30-75-14-268,27-330c21-33,33-20,41,45c10,88-27,312-52,312-3,0-10-12-16-27Z" fill="#00367d"/><path d="M4924,1646c-18-47,51-214,119-283c83-86,90-35,17,111-79,156-121,210-136,172Z" fill="#00367d"/><path d="M5156,1111c-10-15,17-70,55-118c66-81,167-143,235-143c29,0,34,3,34,25c0,32-60,89-180,170-100,67-134,82-144,66Z" fill="#00367d"/></g><g id="edjfZw3Vtoe9"><path d="M5271,3533c-57-59-96-127-122-211-24-77-22-135,5-140c56-11,231,266,224,355-3,34-6,38-32,41-23,3-37-6-75-45Z" fill="#00367d"/><path d="M4892,2933c-48-62-63-99-73-192-12-93,0-176,24-168c55,18,139,306,109,372-16,34-25,32-60-12Z" fill="#00367d"/><path d="M4693,2263c-24-59-28-148-8-223c17-67,49-130,66-130c33,0,42,179,15,294-25,105-46,122-73,59Z" fill="#00367d"/><path d="M4717,1673c-14-13-6-115,12-168c36-101,135-225,161-199s-48,234-119,332c-31,41-41,48-54,35Z" fill="#00367d"/><path d="M4900,1060c0-52,76-176,147-241c35-33,105-69,133-69c65,0-44,170-193,298-59,51-87,55-87,12Z" fill="#00367d"/></g><g id="edjfZw3Vtoe15"><path d="M5089,3772c-78-34-176-202-186-318-10-123,23-145,98-66c109,112,184,328,131,375-20,19-20,19-43,9Z" fill="#00367d"/><path d="M4670,3048c-45-48-83-145-88-222-7-121,13-181,57-169c20,5,71,105,90,178c17,63,14,200-5,219-21,21-29,20-54-6Z" fill="#00367d"/><path d="M4466,2308c-55-84-38-264,33-349c27-31,31-33,46-18c45,44,40,246-8,341-26,50-49,59-71,26Z" fill="#00367d"/><path d="M4479,1680c-22-14-16-132,11-202c12-32,42-85,66-117c65-87,104-94,104-18c0,55-22,135-56,206-48,101-94,149-125,131Z" fill="#00367d"/><path d="M4635,1060c-16-26,32-165,78-223c17-23,56-64,84-91c43-39,60-49,90-50c36-1,38,0,35,29-7,78-126,255-216,323-32,24-61,28-71,12Z" fill="#00367d"/></g><g id="edjfZw3Vtoe21"><path d="M4731,3828c-92-96-149-258-122-348c34-116,174-2,236,193c42,130,28,207-35,207-22,0-41-13-79-52Z" fill="#00367d"/><path d="M4381,3072c-64-67-98-219-69-313c15-51,40-73,73-65c20,5,34,23,61,79c54,116,69,232,36,297-25,51-54,51-101,2Z" fill="#00367d"/><path d="M4220,2337c-32-16-48-71-49-167-1-89,10-131,47-185c34-49,73-58,96-22c22,32,31,159,17,231-21,111-64,166-111,143Z" fill="#00367d"/><path d="M4209,1663c-9-11-14-41-13-89c1-61,7-84,36-146c44-92,101-150,143-146l30,3-1,80c0,67-6,93-34,158-51,123-124,186-161,140Z" fill="#00367d"/><path d="M4365,1033c-39-38,17-204,101-302c41-48,118-101,145-101c33,0,43,27,31,80-27,119-136,281-213,321-46,23-44,23-64,2Z" fill="#00367d"/></g><g id="edjfZw3Vtoe27"><path d="M4420,3886c-48-32-86-80-123-156-27-53-33-79-36-147-4-100,11-133,61-133c93,0,204,159,227,326c8,52,7,75-4,101-12,29-18,33-52,33-24,0-52-9-73-24Z" fill="#00367d"/><path d="M4077,3076c-52-47-79-115-85-209-7-114,25-187,82-187c31,0,84,60,112,128c36,86,41,229,10,275-27,39-71,37-119-7Z" fill="#00367d"/><path d="M3917,2310c-38-45-50-93-45-181c4-66,10-86,38-133c51-83,110-93,146-24c26,49,31,184,9,250-37,114-97,150-148,88Z" fill="#00367d"/><path d="M3944,1662c-6-4-19-22-29-41-39-76,4-238,84-322c53-55,94-64,126-29c15,16,17,32,13,102-6,106-38,186-99,250-43,45-70,57-95,40Z" fill="#00367d"/><path d="M4065,976c-17-40-9-98,24-185c38-100,137-203,210-217c85-17,74,150-17,291-58,89-123,145-167,145-32,0-38-4-50-34Z" fill="#00367d"/></g><g id="edjfZw3Vtoe33"><path d="M4059,3862c-88-56-172-187-185-289-8-64,11-150,36-163c48-26,105-5,167,63c92,99,126,180,127,298c1,62-3,81-18,98-27,29-73,27-127-7Z" fill="#00367d"/><path d="M3749,3043c-94-85-131-227-87-333c48-114,145-89,217,56c39,78,51,171,32,241-15,56-34,73-82,73-31,0-47-8-80-37Z" fill="#00367d"/><path d="M3627,2310c-44-35-77-115-77-189c0-78,40-176,83-204c67-43,126-9,152,88c29,108,8,234-50,292-38,38-71,42-108,13Z" fill="#00367d"/><path d="M3628,1621c-30-27-33-34-36-104-6-113,15-175,87-248c48-50,62-59,92-59c52,0,79,34,86,107c10,112-54,267-129,313-44,27-62,25-100-9Z" fill="#00367d"/><path d="M3761,944c-47-60-14-220,68-326c106-139,231-144,231-11c0,48-39,177-67,221-81,129-182,179-232,116Z" fill="#00367d"/></g><g id="edjfZw3Vtoe39"><path d="M3710,3803c-143-54-271-309-215-427c38-79,111-74,196,13c86,88,151,249,135,335-12,65-63,99-116,79Z" fill="#00367d"/><path d="M3415,2992c-25-18-55-54-80-97-36-62-40-76-40-135c1-115,59-194,130-176c73,18,147,138,153,246c9,162-61,232-163,162Z" fill="#00367d"/><path d="M3296,2269c-63-50-92-167-62-256c44-133,133-181,201-108c60,63,71,196,26,297-38,84-107,112-165,67Z" fill="#00367d"/><path d="M3303,1588c-12-13-27-43-33-68-43-161,102-379,220-330c25,10,33,22,46,67c28,98-7,227-85,312-34,36-43,41-83,41-33,0-50-6-65-22Z" fill="#00367d"/><path d="M3457,919c-28-16-47-64-47-117c0-112,64-237,159-310c37-28,51-33,90-30c43,3,47,6,65,42c17,36,18,47,8,107-33,189-185,360-275,308Z" fill="#00367d"/></g><g id="edjfZw3Vtoe45"><path d="M3258,3660c-47-25-117-106-139-162-22-54-24-141-3-200c28-83,101-88,181-15c91,83,134,228,99,326-27,73-67,88-138,51Z" fill="#00367d"/><path d="M3064,2920c-31-12-93-89-104-129-26-93-5-196,48-243c30-25,41-29,71-24c73,11,141,122,141,231c0,60-27,142-53,160-23,16-69,19-103,5Z" fill="#00367d"/><path d="M2954,2231c-64-39-85-172-40-266c12-27,37-65,54-82c25-28,37-33,74-33c73,0,108,53,108,162c0,88-26,162-72,204-44,39-78,43-124,15Z" fill="#00367d"/><path d="M2987,1572c-57-23-75-144-36-244c33-86,114-158,177-158c50,0,74,29,80,94c6,80-12,151-56,216-56,82-111,113-165,92Z" fill="#00367d"/><path d="M3103,870c-35-14-46-47-41-120c12-166,185-357,283-312c40,18,49,55,36,137-14,88-49,159-109,226-63,70-114,91-169,69Z" fill="#00367d"/></g><g id="edjfZw3Vtoe51"><path d="M2835,3526c-34-15-86-70-110-117-43-81-22-223,38-259c18-11,43-20,56-20c57,0,137,82,160,165c25,90,0,204-49,230-35,18-55,18-95,1Z" fill="#00367d"/><path d="M2665,2822c-43-27-78-103-79-171-1-96,68-191,139-191c99,0,158,173,101,296-38,82-95,106-161,66Z" fill="#00367d"/><path d="M2583,2176c-27-23-28-28-28-119c0-90,2-98,30-138c38-54,71-78,116-85c29-5,41-1,65,19c28,25,29,27,29,124c0,106-6,123-69,191-39,42-100,45-143,8Z" fill="#00367d"/><path d="M2607,1525c-24-23-27-33-27-90c0-78,24-138,80-199c70-76,133-94,175-51c66,65-3,277-110,339-55,33-83,33-118,1Z" fill="#00367d"/><path d="M2734,850c-37-15-49-62-35-137c15-83,40-133,99-195c78-83,159-111,202-68c11,11,20,33,20,48c0,40-27,136-51,184-29,57-103,133-153,158-46,22-51,23-82,10Z" fill="#00367d"/></g><g id="edjfZw3Vtoe57"><path d="M2367,3373c-38-41-57-94-57-163c0-74,17-117,59-153c68-57,156-16,186,86c19,64,19,100,0,165-20,66-52,92-114,92-38,0-52-5-74-27Z" fill="#00367d"/><path d="M2300,2753c-33-12-59-47-70-95-29-120,40-248,135-251c93-3,138,144,79,261-39,78-86,106-144,85Z" fill="#00367d"/><path d="M2222,2145c-61-77-26-226,69-298c56-42,84-44,119-9c27,28,30,37,30,94c0,66-21,126-61,176-51,65-122,82-157,37Z" fill="#00367d"/><path d="M2245,1515c-69-68,9-270,127-331c42-22,90-15,106,16c15,30,8,126-13,177-32,76-128,163-180,163-9,0-27-11-40-25Z" fill="#00367d"/><path d="M2325,840c-14-16-17-31-13-83c7-85,34-140,103-215c82-89,148-117,191-81c28,23,15,123-28,211-68,137-201,226-253,168Z" fill="#00367d"/></g><g id="edjfZw3Vtoe63"><path d="M1985,3276c-52-23-69-51-73-121-5-83,10-125,63-174c92-84,175-29,175,117c0,121-85,213-165,178Z" fill="#00367d"/><path d="M1897,2679c-46-27-60-134-28-204c19-43,85-109,120-120c11-3,33,0,48,7c22,10,31,24,41,70c12,49,12,63-2,111-31,106-118,172-179,136Z" fill="#00367d"/><path d="M1872,2140c-39-16-54-93-32-170c12-43,70-117,111-142c43-26,85-23,105,7c22,34,15,135-14,191-20,39-93,114-111,114-5,0-15,2-23,4-7,3-23,1-36-4Z" fill="#00367d"/><path d="M1864,1519c-44-49,4-193,92-280c34-33,51-42,88-46c43-5,46-4,57,23c42,110-90,324-199,324-10,0-27-9-38-21Z" fill="#00367d"/><path d="M1932,874c-36-25-30-87,18-181c83-160,228-253,260-168c13,35,3,79-37,160-41,82-101,152-157,182-49,27-55,27-84,7Z" fill="#00367d"/></g><g id="edjfZw3Vtoe69"><path d="M1547,3178c-22-17-37-61-37-109c0-85,91-199,159-199c12,0,33,11,46,25c22,21,25,33,25,93c0,58-4,75-30,115-47,74-120,107-163,75Z" fill="#00367d"/><path d="M1500,2625c-19-23-24-107-10-151c29-90,127-170,176-144c43,23,47,124,9,199-45,89-138,140-175,96Z" fill="#00367d"/><path d="M1474,2105c-45-69,51-260,148-294c26-9,33-7,55,15s24,30,18,72c-4,26-20,75-37,110-49,105-146,156-184,97Z" fill="#00367d"/><path d="M1489,1544c-50-60,47-262,150-313c57-29,81-13,81,56c0,77-67,198-137,246-45,31-75,34-94,11Z" fill="#00367d"/><path d="M1538,942c-43-9-31-104,25-202c63-111,164-193,207-170c47,25,7,165-77,268-64,80-114,114-155,104Z" fill="#00367d"/></g><g id="edjfZw3Vtoe75"><path d="M1140,3120c-74-74,79-339,169-291c26,14,35,50,27,107-10,74-67,158-127,190-37,19-45,18-69-6Z" fill="#00367d"/><path d="M1116,2604c-53-52,54-273,144-297c10-3,28,2,39,10c56,39-7,219-98,280-40,27-64,29-85,7Z" fill="#00367d"/><path d="M1118,2129c-13-7-18-23-18-59c0-84,66-198,137-238l42-23l22,22c17,17,20,28,15,63-13,85-86,200-147,232-33,16-29,16-51,3Z" fill="#00367d"/><path d="M1110,1581c-19-36-11-87,25-158c37-74,120-163,152-163c37,0,46,16,41,67-8,87-92,224-159,258-37,20-46,19-59-4Z" fill="#00367d"/><path d="M1127,1013c-4-3-7-25-7-49c0-87,128-283,195-300c29-7,55,10,55,37c0,69-90,234-160,293-30,25-69,34-83,19Z" fill="#00367d"/></g><g id="edjfZw3Vtoe81"><path d="M750,3105c-31-37,17-178,85-253c41-47,69-59,90-42c18,15,20,84,3,131-18,54-78,137-113,159-39,24-49,25-65,5Z" fill="#00367d"/><path d="M739,2609c-23-44,30-186,98-257c104-109,137,13,45,165-35,60-92,113-119,113-7,0-17-9-24-21Z" fill="#00367d"/><path d="M745,2146c-54-39,62-285,147-312c52-16,58,65,12,162-52,111-122,177-159,150Z" fill="#00367d"/><path d="M735,1619c-26-80,111-317,177-307c21,3,23,8,22,59-3,127-171,337-199,248Z" fill="#00367d"/><path d="M742,1053c7-77,56-178,117-243c55-59,84-64,89-16c11,96-120,316-188,316-22,0-23-3-18-57Z" fill="#00367d"/></g><g id="edjfZw3Vtoe87" transform="translate(.00452 0)"><path d="M365,3139c-20-62,69-245,146-300c30-21,33-21,44-5c28,38-35,192-113,275-53,56-67,62-77,30Z" fill="#00367d"/><path d="M364,2655c-18-45,44-188,114-267c55-61,82-64,82-9c0,67-56,184-123,254-36,39-64,47-73,22Z" fill="#00367d"/><path d="M363,2131c9-76,81-200,143-247c33-25,36-26,52-11c15,16,15,22-8,89-23,66-92,176-129,205-9,7-27,13-40,13-23,0-24-2-18-49Z" fill="#00367d"/><path d="M365,1690c-12-20,16-116,56-188c42-77,103-146,122-139c7,2,12,24,11,53-2,74-76,224-134,271-18,15-47,17-55,3Z" fill="#00367d"/><path d="M375,1201c-16-50,67-271,119-320c31-29,56-22,56,17c0,71-60,231-111,296-24,31-55,34-64,7Z" fill="#00367d"/></g></g>
<script fill="#00367d"><![CDATA[
!function(t,n){"object"==typeof exports&&"undefined"!=typeof module?module.exports=n():"function"==typeof __SVGATOR_DEFINE__&&__SVGATOR_DEFINE__.amd?__SVGATOR_DEFINE__(n):((t="undefined"!=typeof globalThis?globalThis:t||self).__SVGATOR_PLAYER__=t.__SVGATOR_PLAYER__||{},t.__SVGATOR_PLAYER__["5c7f360c"]=n())}(this,(function(){"use strict";function t(t,n){var e=Object.keys(t);if(Object.getOwnPropertySymbols){var r=Object.getOwnPropertySymbols(t);n&&(r=r.filter((function(n){return Object.getOwnPropertyDescriptor(t,n).enumerable}))),e.push.apply(e,r)}return e}function n(n){for(var e=1;e<arguments.length;e++){var r=null!=arguments[e]?arguments[e]:{};e%2?t(Object(r),!0).forEach((function(t){o(n,t,r[t])})):Object.getOwnPropertyDescriptors?Object.defineProperties(n,Object.getOwnPropertyDescriptors(r)):t(Object(r)).forEach((function(t){Object.defineProperty(n,t,Object.getOwnPropertyDescriptor(r,t))}))}return n}function e(t){return(e="function"==typeof Symbol&&"symbol"==typeof Symbol.iterator?function(t){return typeof t}:function(t){return t&&"function"==typeof Symbol&&t.constructor===Symbol&&t!==Symbol.prototype?"symbol":typeof t})(t)}function r(t,n){if(!(t instanceof n))throw new TypeError("Cannot call a class as a function")}function i(t,n){for(var e=0;e<n.length;e++){var r=n[e];r.enumerable=r.enumerable||!1,r.configurable=!0,"value"in r&&(r.writable=!0),Object.defineProperty(t,r.key,r)}}function u(t,n,e){return n&&i(t.prototype,n),e&&i(t,e),t}function o(t,n,e){return n in t?Object.defineProperty(t,n,{value:e,enumerable:!0,configurable:!0,writable:!0}):t[n]=e,t}function a(t){return(a=Object.setPrototypeOf?Object.getPrototypeOf:function(t){return t.__proto__||Object.getPrototypeOf(t)})(t)}function l(t,n){return(l=Object.setPrototypeOf||function(t,n){return t.__proto__=n,t})(t,n)}function s(){if("undefined"==typeof Reflect||!Reflect.construct)return!1;if(Reflect.construct.sham)return!1;if("function"==typeof Proxy)return!0;try{return Boolean.prototype.valueOf.call(Reflect.construct(Boolean,[],(function(){}))),!0}catch(t){return!1}}function f(t,n,e){return(f=s()?Reflect.construct:function(t,n,e){var r=[null];r.push.apply(r,n);var i=new(Function.bind.apply(t,r));return e&&l(i,e.prototype),i}).apply(null,arguments)}function c(t,n){if(n&&("object"==typeof n||"function"==typeof n))return n;if(void 0!==n)throw new TypeError("Derived constructors may only return object or undefined");return function(t){if(void 0===t)throw new ReferenceError("this hasn't been initialised - super() hasn't been called");return t}(t)}function h(t,n,e){return(h="undefined"!=typeof Reflect&&Reflect.get?Reflect.get:function(t,n,e){var r=function(t,n){for(;!Object.prototype.hasOwnProperty.call(t,n)&&null!==(t=a(t)););return t}(t,n);if(r){var i=Object.getOwnPropertyDescriptor(r,n);return i.get?i.get.call(e):i.value}})(t,n,e||t)}function v(t){return function(t){if(Array.isArray(t))return y(t)}(t)||function(t){if("undefined"!=typeof Symbol&&null!=t[Symbol.iterator]||null!=t["@@iterator"])return Array.from(t)}(t)||function(t,n){if(!t)return;if("string"==typeof t)return y(t,n);var e=Object.prototype.toString.call(t).slice(8,-1);"Object"===e&&t.constructor&&(e=t.constructor.name);if("Map"===e||"Set"===e)return Array.from(t);if("Arguments"===e||/^(?:Ui|I)nt(?:8|16|32)(?:Clamped)?Array$/.test(e))return y(t,n)}(t)||function(){throw new TypeError("Invalid attempt to spread non-iterable instance.\nIn order to be iterable, non-array objects must have a [Symbol.iterator]() method.")}()}function y(t,n){(null==n||n>t.length)&&(n=t.length);for(var e=0,r=new Array(n);e<n;e++)r[e]=t[e];return r}Number.isInteger||(Number.isInteger=function(t){return"number"==typeof t&&isFinite(t)&&Math.floor(t)===t}),Number.EPSILON||(Number.EPSILON=2220446049250313e-31);var g=p(Math.pow(10,-6));function p(t){var n=arguments.length>1&&void 0!==arguments[1]?arguments[1]:6;if(Number.isInteger(t))return t;var e=Math.pow(10,n);return Math.round((+t+Number.EPSILON)*e)/e}function d(t,n){var e=arguments.length>2&&void 0!==arguments[2]?arguments[2]:g;return Math.abs(t-n)<e}var m=Math.PI/180;function b(t){return t}function w(t,n,e){var r=1-e;return 3*e*r*(t*r+n*e)+e*e*e}function A(){var t=arguments.length>0&&void 0!==arguments[0]?arguments[0]:0,n=arguments.length>1&&void 0!==arguments[1]?arguments[1]:0,e=arguments.length>2&&void 0!==arguments[2]?arguments[2]:1,r=arguments.length>3&&void 0!==arguments[3]?arguments[3]:1;return t<0||t>1||e<0||e>1?null:d(t,n)&&d(e,r)?b:function(i){if(i<=0)return t>0?i*n/t:0===n&&e>0?i*r/e:0;if(i>=1)return e<1?1+(i-1)*(r-1)/(e-1):1===e&&t<1?1+(i-1)*(n-1)/(t-1):1;for(var u,o=0,a=1;o<a;){var l=w(t,e,u=(o+a)/2);if(d(i,l))break;l<i?o=u:a=u}return w(n,r,u)}}function _(){return 1}function x(t){return 1===t?1:0}function k(){var t=arguments.length>0&&void 0!==arguments[0]?arguments[0]:1,n=arguments.length>1&&void 0!==arguments[1]?arguments[1]:0;if(1===t){if(0===n)return x;if(1===n)return _}var e=1/t;return function(t){return t>=1?1:(t+=n*e)-t%e}}var S=Math.sin,O=Math.cos,j=Math.acos,E=Math.asin,M=Math.tan,P=Math.atan2,I=Math.PI/180,R=180/Math.PI,F=Math.sqrt,N=function(){function t(){var n=arguments.length>0&&void 0!==arguments[0]?arguments[0]:1,e=arguments.length>1&&void 0!==arguments[1]?arguments[1]:0,i=arguments.length>2&&void 0!==arguments[2]?arguments[2]:0,u=arguments.length>3&&void 0!==arguments[3]?arguments[3]:1,o=arguments.length>4&&void 0!==arguments[4]?arguments[4]:0,a=arguments.length>5&&void 0!==arguments[5]?arguments[5]:0;r(this,t),this.m=[n,e,i,u,o,a],this.i=null,this.w=null,this.s=null}return u(t,[{key:"determinant",get:function(){var t=this.m;return t[0]*t[3]-t[1]*t[2]}},{key:"isIdentity",get:function(){if(null===this.i){var t=this.m;this.i=1===t[0]&&0===t[1]&&0===t[2]&&1===t[3]&&0===t[4]&&0===t[5]}return this.i}},{key:"point",value:function(t,n){var e=this.m;return{x:e[0]*t+e[2]*n+e[4],y:e[1]*t+e[3]*n+e[5]}}},{key:"translateSelf",value:function(){var t=arguments.length>0&&void 0!==arguments[0]?arguments[0]:0,n=arguments.length>1&&void 0!==arguments[1]?arguments[1]:0;if(!t&&!n)return this;var e=this.m;return e[4]+=e[0]*t+e[2]*n,e[5]+=e[1]*t+e[3]*n,this.w=this.s=this.i=null,this}},{key:"rotateSelf",value:function(){var t=arguments.length>0&&void 0!==arguments[0]?arguments[0]:0;if(t%=360){var n=S(t*=I),e=O(t),r=this.m,i=r[0],u=r[1];r[0]=i*e+r[2]*n,r[1]=u*e+r[3]*n,r[2]=r[2]*e-i*n,r[3]=r[3]*e-u*n,this.w=this.s=this.i=null}return this}},{key:"scaleSelf",value:function(){var t=arguments.length>0&&void 0!==arguments[0]?arguments[0]:1,n=arguments.length>1&&void 0!==arguments[1]?arguments[1]:1;if(1!==t||1!==n){var e=this.m;e[0]*=t,e[1]*=t,e[2]*=n,e[3]*=n,this.w=this.s=this.i=null}return this}},{key:"skewSelf",value:function(t,n){if(n%=360,(t%=360)||n){var e=this.m,r=e[0],i=e[1],u=e[2],o=e[3];t&&(t=M(t*I),e[2]+=r*t,e[3]+=i*t),n&&(n=M(n*I),e[0]+=u*n,e[1]+=o*n),this.w=this.s=this.i=null}return this}},{key:"resetSelf",value:function(){var t=arguments.length>0&&void 0!==arguments[0]?arguments[0]:1,n=arguments.length>1&&void 0!==arguments[1]?arguments[1]:0,e=arguments.length>2&&void 0!==arguments[2]?arguments[2]:0,r=arguments.length>3&&void 0!==arguments[3]?arguments[3]:1,i=arguments.length>4&&void 0!==arguments[4]?arguments[4]:0,u=arguments.length>5&&void 0!==arguments[5]?arguments[5]:0,o=this.m;return o[0]=t,o[1]=n,o[2]=e,o[3]=r,o[4]=i,o[5]=u,this.w=this.s=this.i=null,this}},{key:"recomposeSelf",value:function(){var t=arguments.length>0&&void 0!==arguments[0]?arguments[0]:null,n=arguments.length>1&&void 0!==arguments[1]?arguments[1]:null,e=arguments.length>2&&void 0!==arguments[2]?arguments[2]:null,r=arguments.length>3&&void 0!==arguments[3]?arguments[3]:null,i=arguments.length>4&&void 0!==arguments[4]?arguments[4]:null;return this.isIdentity||this.resetSelf(),t&&(t.x||t.y)&&this.translateSelf(t.x,t.y),n&&this.rotateSelf(n),e&&(e.x&&this.skewSelf(e.x,0),e.y&&this.skewSelf(0,e.y)),!r||1===r.x&&1===r.y||this.scaleSelf(r.x,r.y),i&&(i.x||i.y)&&this.translateSelf(i.x,i.y),this}},{key:"decompose",value:function(){var t=arguments.length>0&&void 0!==arguments[0]?arguments[0]:0,n=arguments.length>1&&void 0!==arguments[1]?arguments[1]:0,e=this.m,r=e[0]*e[0]+e[1]*e[1],i=[[e[0],e[1]],[e[2],e[3]]],u=F(r);if(0===u)return{origin:{x:p(e[4]),y:p(e[5])},translate:{x:p(t),y:p(n)},scale:{x:0,y:0},skew:{x:0,y:0},rotate:0};i[0][0]/=u,i[0][1]/=u;var o=e[0]*e[3]-e[1]*e[2]<0;o&&(u=-u);var a=i[0][0]*i[1][0]+i[0][1]*i[1][1];i[1][0]-=i[0][0]*a,i[1][1]-=i[0][1]*a;var l=F(i[1][0]*i[1][0]+i[1][1]*i[1][1]);if(0===l)return{origin:{x:p(e[4]),y:p(e[5])},translate:{x:p(t),y:p(n)},scale:{x:p(u),y:0},skew:{x:0,y:0},rotate:0};i[1][0]/=l,i[1][1]/=l,a/=l;var s=0;return i[1][1]<0?(s=j(i[1][1])*R,i[0][1]<0&&(s=360-s)):s=E(i[0][1])*R,o&&(s=-s),a=P(a,F(i[0][0]*i[0][0]+i[0][1]*i[0][1]))*R,o&&(a=-a),{origin:{x:p(e[4]),y:p(e[5])},translate:{x:p(t),y:p(n)},scale:{x:p(u),y:p(l)},skew:{x:p(a),y:0},rotate:p(s)}}},{key:"clone",value:function(){var t=this.m;return new this.constructor(t[0],t[1],t[2],t[3],t[4],t[5])}},{key:"toString",value:function(){var t=arguments.length>0&&void 0!==arguments[0]?arguments[0]:" ";if(null===this.s){var n=this.m.map((function(t){return p(t)}));1===n[0]&&0===n[1]&&0===n[2]&&1===n[3]?this.s="translate("+n[4]+t+n[5]+")":this.s="matrix("+n.join(t)+")"}return this.s}}],[{key:"create",value:function(t){return t?Array.isArray(t)?f(this,v(t)):t instanceof this?t.clone():(new this).recomposeSelf(t.origin,t.rotate,t.skew,t.scale,t.translate):new this}}]),t}();function T(t,n,e){return t>=.5?e:n}function q(t,n,e){return 0===t||n===e?n:t*(e-n)+n}function B(t,n,e){var r=q(t,n,e);return r<=0?0:r}function D(t,n,e){var r=q(t,n,e);return r<=0?0:r>=1?1:r}function L(t,n,e){return 0===t?n:1===t?e:{x:q(t,n.x,e.x),y:q(t,n.y,e.y)}}function C(t,n,e){var r=function(t,n,e){return Math.round(q(t,n,e))}(t,n,e);return r<=0?0:r>=255?255:r}function V(t,n,e){return 0===t?n:1===t?e:{r:C(t,n.r,e.r),g:C(t,n.g,e.g),b:C(t,n.b,e.b),a:q(t,null==n.a?1:n.a,null==e.a?1:e.a)}}function G(t,n){for(var e=[],r=0;r<t;r++)e.push(n);return e}function z(t,n){if(--n<=0)return t;var e=(t=Object.assign([],t)).length;do{for(var r=0;r<e;r++)t.push(t[r])}while(--n>0);return t}var Y,$=function(){function t(n){r(this,t),this.list=n,this.length=n.length}return u(t,[{key:"setAttribute",value:function(t,n){for(var e=this.list,r=0;r<this.length;r++)e[r].setAttribute(t,n)}},{key:"removeAttribute",value:function(t){for(var n=this.list,e=0;e<this.length;e++)n[e].removeAttribute(t)}},{key:"style",value:function(t,n){for(var e=this.list,r=0;r<this.length;r++)e[r].style[t]=n}}]),t}(),U=/-./g,Q=function(t,n){return n.toUpperCase()};function H(t){return"function"==typeof t?t:T}function J(t){return t?"function"==typeof t?t:Array.isArray(t)?function(t){var n=arguments.length>1&&void 0!==arguments[1]?arguments[1]:b;if(!Array.isArray(t))return n;switch(t.length){case 1:return k(t[0])||n;case 2:return k(t[0],t[1])||n;case 4:return A(t[0],t[1],t[2],t[3])||n}return n}(t,null):function(t,n){var e=arguments.length>2&&void 0!==arguments[2]?arguments[2]:b;switch(t){case"linear":return b;case"steps":return k(n.steps||1,n.jump||0)||e;case"bezier":case"cubic-bezier":return A(n.x1||0,n.y1||0,n.x2||0,n.y2||0)||e}return e}(t.type,t.value,null):null}function Z(t,n,e){var r=arguments.length>3&&void 0!==arguments[3]&&arguments[3],i=n.length-1;if(t<=n[0].t)return r?[0,0,n[0].v]:n[0].v;if(t>=n[i].t)return r?[i,1,n[i].v]:n[i].v;var u,o=n[0],a=null;for(u=1;u<=i;u++){if(!(t>n[u].t)){a=n[u];break}o=n[u]}return null==a?r?[i,1,n[i].v]:n[i].v:o.t===a.t?r?[u,1,a.v]:a.v:(t=(t-o.t)/(a.t-o.t),o.e&&(t=o.e(t)),r?[u,t,e(t,o.v,a.v)]:e(t,o.v,a.v))}function K(t,n){var e=arguments.length>2&&void 0!==arguments[2]?arguments[2]:null;return t&&t.length?"function"!=typeof n?null:("function"!=typeof e&&(e=null),function(r){var i=Z(r,t,n);return null!=i&&e&&(i=e(i)),i}):null}function W(t,n){return t.t-n.t}function X(t,n,r,i,u){var o,a="@"===r[0],l="#"===r[0],s=Y[r],f=T;switch(a?(o=r.substr(1),r=o.replace(U,Q)):l&&(r=r.substr(1)),e(s)){case"function":if(f=s(i,u,Z,J,r,a,n,t),l)return f;break;case"string":f=K(i,H(s));break;case"object":if((f=K(i,H(s.i),s.f))&&"function"==typeof s.u)return s.u(n,f,r,a,t)}return f?function(t,n,e){if(arguments.length>3&&void 0!==arguments[3]&&arguments[3])return t instanceof $?function(r){return t.style(n,e(r))}:function(r){return t.style[n]=e(r)};if(Array.isArray(n)){var r=n.length;return function(i){var u=e(i);if(null==u)for(var o=0;o<r;o++)t[o].removeAttribute(n);else for(var a=0;a<r;a++)t[a].setAttribute(n,u)}}return function(r){var i=e(r);null==i?t.removeAttribute(n):t.setAttribute(n,i)}}(n,r,f,a):null}function tt(t,n,r,i){if(!i||"object"!==e(i))return null;var u=null,o=null;return Array.isArray(i)?o=function(t){if(!t||!t.length)return null;for(var n=0;n<t.length;n++)t[n].e&&(t[n].e=J(t[n].e));return t.sort(W)}(i):(o=i.keys,u=i.data||null),o?X(t,n,r,o,u):null}function nt(t,n,e){if(!e)return null;var r=[];for(var i in e)if(e.hasOwnProperty(i)){var u=tt(t,n,i,e[i]);u&&r.push(u)}return r.length?r:null}function et(t,n){if(!n.settings.duration||n.settings.duration<0)return null;var e,r,i,u,o,a=function(t,n){if(!n)return null;var e=[];if(Array.isArray(n))for(var r=n.length,i=0;i<r;i++){var u=n[i];if(2===u.length){var o=null;if("string"==typeof u[0])o=t.getElementById(u[0]);else if(Array.isArray(u[0])){o=[];for(var a=0;a<u[0].length;a++)if("string"==typeof u[0][a]){var l=t.getElementById(u[0][a]);l&&o.push(l)}o=o.length?1===o.length?o[0]:new $(o):null}if(o){var s=nt(t,o,u[1]);s&&(e=e.concat(s))}}}else for(var f in n)if(n.hasOwnProperty(f)){var c=t.getElementById(f);if(c){var h=nt(t,c,n[f]);h&&(e=e.concat(h))}}return e.length?e:null}(t,n.elements);return a?(e=a,r=n.settings,i=r.duration,u=e.length,o=null,function(t,n){var a=r.iterations||1/0,l=(r.alternate&&a%2==0)^r.direction>0?i:0,s=t%i,f=1+(t-s)/i;n*=r.direction,r.alternate&&f%2==0&&(n=-n);var c=!1;if(f>a)s=l,c=!0,-1===r.fill&&(s=r.direction>0?0:i);else if(n<0&&(s=i-s),s===o)return!1;o=s;for(var h=0;h<u;h++)e[h](s);return c}):null}function rt(t,n){if(Y=n,!t||!t.root||!Array.isArray(t.animations))return null;var e=function(t){for(var n=document.getElementsByTagName("svg"),e=0;e<n.length;e++)if(n[e].id===t.root&&!n[e].svgatorAnimation)return n[e].svgatorAnimation=!0,n[e];return null}(t);if(!e)return null;var r=t.animations.map((function(t){return et(e,t)})).filter((function(t){return!!t}));return r.length?{svg:e,animations:r,animationSettings:t.animationSettings,options:t.options||void 0}:null}function it(t){return+("0x"+(t.replace(/[^0-9a-fA-F]+/g,"")||27))}function ut(t,n,e){return!t||!e||n>t.length?t:t.substring(0,n)+ut(t.substring(n+1),e,e)}function ot(t){var n=arguments.length>1&&void 0!==arguments[1]?arguments[1]:27;return!t||t%n?t%n:ot(t/n,n)}function at(t,n,e){if(t&&t.length){var r=it(e),i=it(n),u=ot(r)+5,o=ut(t,ot(r,5),u);return o=o.replace(/\x7c$/g,"==").replace(/\x2f$/g,"="),o=function(t,n,e){var r=+("0x"+t.substring(0,4));t=t.substring(4);for(var i=n%r+e%27,u=[],o=0;o<t.length;o+=2)if("|"!==t[o]){var a=+("0x"+t[o]+t[o+1])-i;u.push(a)}else{var l=+("0x"+t.substring(o+1,o+1+4))-i;o+=3,u.push(l)}return String.fromCharCode.apply(String,u)}(o=(o=atob(o)).replace(/[\x41-\x5A]/g,""),i,r),o=JSON.parse(o)}}var lt=[{key:"alternate",def:!1},{key:"fill",def:1},{key:"iterations",def:0},{key:"direction",def:1},{key:"speed",def:1},{key:"fps",def:100}],st=function(){function t(n,e){var i=this,u=arguments.length>2&&void 0!==arguments[2]?arguments[2]:null;r(this,t),this._id=0,this._running=!1,this._rollingBack=!1,this._animations=n,this._settings=e,(!u||u<"2022-05-02")&&delete this._settings.speed,lt.forEach((function(t){i._settings[t.key]=i._settings[t.key]||t.def})),this.duration=e.duration,this.offset=e.offset||0,this.rollbackStartOffset=0}return u(t,[{key:"alternate",get:function(){return this._settings.alternate}},{key:"fill",get:function(){return this._settings.fill}},{key:"iterations",get:function(){return this._settings.iterations}},{key:"direction",get:function(){return this._settings.direction}},{key:"speed",get:function(){return this._settings.speed}},{key:"fps",get:function(){return this._settings.fps}},{key:"maxFiniteDuration",get:function(){return this.iterations>0?this.iterations*this.duration:this.duration}},{key:"_apply",value:function(t){for(var n=arguments.length>1&&void 0!==arguments[1]?arguments[1]:{},e=this._animations,r=e.length,i=0,u=0;u<r;u++)n[u]?i++:(n[u]=e[u](t,1),n[u]&&i++);return i}},{key:"_rollback",value:function(t){var n=this,e=1/0,r=null;this.rollbackStartOffset=t,this._rollingBack=!0,this._running=!0;this._id=window.requestAnimationFrame((function i(u){if(n._rollingBack){null==r&&(r=u);var o=Math.round(t-(u-r)*n.speed);if(o>n.duration&&e!==1/0){var a=!!n.alternate&&o/n.duration%2>1,l=o%n.duration;o=(l+=a?n.duration:0)||n.duration}var s=(n.fps?1e3/n.fps:0)*n.speed,f=Math.max(0,o);f<=e-s&&(n.offset=f,e=f,n._apply(f));var c=n.iterations>0&&-1===n.fill&&o>=n.maxFiniteDuration;(o<=0||n.offset<o||c)&&n.stop(),n._id=window.requestAnimationFrame(i)}}))}},{key:"_start",value:function(){var t=this,n=arguments.length>0&&void 0!==arguments[0]?arguments[0]:0,e=-1/0,r=null,i={};this._running=!0;var u=function u(o){null==r&&(r=o);var a=Math.round((o-r)*t.speed+n),l=(t.fps?1e3/t.fps:0)*t.speed;if(a>=e+l&&!t._rollingBack&&(t.offset=a,e=a,t._apply(a,i)===t._animations.length))return void t.pause(!0);t._id=window.requestAnimationFrame(u)};this._id=window.requestAnimationFrame(u)}},{key:"_pause",value:function(){this._id&&window.cancelAnimationFrame(this._id),this._running=!1}},{key:"play",value:function(){if(!this._running)return this._rollingBack?this._rollback(this.offset):this._start(this.offset)}},{key:"stop",value:function(){this._pause(),this.offset=0,this.rollbackStartOffset=0,this._rollingBack=!1,this._apply(0)}},{key:"reachedToEnd",value:function(){return this.iterations>0&&this.offset>=this.iterations*this.duration}},{key:"restart",value:function(){var t=arguments.length>0&&void 0!==arguments[0]&&arguments[0];this.stop(t),this.play(t)}},{key:"pause",value:function(){this._pause()}},{key:"reverse",value:function(){this.direction=-this.direction}}],[{key:"build",value:function(t,n){delete t.animationSettings,t.options=at(t.options,t.root,"5c7f360c"),t.animations.map((function(n){n.settings=at(n.s,t.root,"5c7f360c"),delete n.s,t.animationSettings||(t.animationSettings=n.settings)}));var e=t.version;if(!(t=rt(t,n)))return null;var r=t.options||{},i=new this(t.animations,t.animationSettings,e);return{el:t.svg,options:r,player:i}}},{key:"push",value:function(t){return this.build(t)}},{key:"init",value:function(){var t=this,n=window.__SVGATOR_PLAYER__&&window.__SVGATOR_PLAYER__["5c7f360c"];Array.isArray(n)&&n.splice(0).forEach((function(n){return t.build(n)}))}}]),t}();function ft(t){return p(t)+""}function ct(t){var n=arguments.length>1&&void 0!==arguments[1]?arguments[1]:" ";return t&&t.length?t.map(ft).join(n):""}function ht(t){if(!t)return"transparent";if(null==t.a||t.a>=1){var n=function(t){return 1===(t=parseInt(t).toString(16)).length?"0"+t:t},e=function(t){return t.charAt(0)===t.charAt(1)},r=n(t.r),i=n(t.g),u=n(t.b);return e(r)&&e(i)&&e(u)&&(r=r.charAt(0),i=i.charAt(0),u=u.charAt(0)),"#"+r+i+u}return"rgba("+t.r+","+t.g+","+t.b+","+t.a+")"}function vt(t){return t?"url(#"+t+")":"none"}!function(){for(var t=0,n=["ms","moz","webkit","o"],e=0;e<n.length&&!window.requestAnimationFrame;++e)window.requestAnimationFrame=window[n[e]+"RequestAnimationFrame"],window.cancelAnimationFrame=window[n[e]+"CancelAnimationFrame"]||window[n[e]+"CancelRequestAnimationFrame"];window.requestAnimationFrame||(window.requestAnimationFrame=function(n){var e=Date.now(),r=Math.max(0,16-(e-t)),i=window.setTimeout((function(){n(e+r)}),r);return t=e+r,i},window.cancelAnimationFrame=window.clearTimeout)}();var yt={f:null,i:function(t,n,e){return 0===t?n:1===t?e:{x:B(t,n.x,e.x),y:B(t,n.y,e.y)}},u:function(t,n){return function(e){var r=n(e);t.setAttribute("rx",ft(r.x)),t.setAttribute("ry",ft(r.y))}}},gt={f:null,i:function(t,n,e){return 0===t?n:1===t?e:{width:B(t,n.width,e.width),height:B(t,n.height,e.height)}},u:function(t,n){return function(e){var r=n(e);t.setAttribute("width",ft(r.width)),t.setAttribute("height",ft(r.height))}}};Object.freeze({M:2,L:2,Z:0,H:1,V:1,C:6,Q:4,T:2,S:4,A:7});var pt={},dt=null;function mt(t){var n=function(){if(dt)return dt;if("object"!==("undefined"==typeof document?"undefined":e(document))||!document.createElementNS)return{};var t=document.createElementNS("http://www.w3.org/2000/svg","svg");return t&&t.style?(t.style.position="absolute",t.style.opacity="0.01",t.style.zIndex="-9999",t.style.left="-9999px",t.style.width="1px",t.style.height="1px",dt={svg:t}):{}}().svg;if(!n)return function(t){return null};var r=document.createElementNS(n.namespaceURI,"path");r.setAttributeNS(null,"d",t),r.setAttributeNS(null,"fill","none"),r.setAttributeNS(null,"stroke","none"),n.appendChild(r);var i=r.getTotalLength();return function(t){var n=r.getPointAtLength(i*t);return{x:n.x,y:n.y}}}function bt(t){return pt[t]?pt[t]:pt[t]=mt(t)}function wt(t,n,e,r){if(!t||!r)return!1;var i=["M",t.x,t.y];if(n&&e&&(i.push("C"),i.push(n.x),i.push(n.y),i.push(e.x),i.push(e.y)),n?!e:e){var u=n||e;i.push("Q"),i.push(u.x),i.push(u.y)}return n||e||i.push("L"),i.push(r.x),i.push(r.y),i.join(" ")}function At(t,n,e,r){var i=arguments.length>4&&void 0!==arguments[4]?arguments[4]:1,u=wt(t,n,e,r),o=bt(u);try{return o(i)}catch(t){return null}}function _t(t,n,e){return t+(n-t)*e}function xt(t,n,e){var r=arguments.length>3&&void 0!==arguments[3]&&arguments[3],i={x:_t(t.x,n.x,e),y:_t(t.y,n.y,e)};return r&&(i.a=kt(t,n)),i}function kt(t,n){return Math.atan2(n.y-t.y,n.x-t.x)}function St(t,n,e,r){var i=1-r;return i*i*t+2*i*r*n+r*r*e}function Ot(t,n,e,r){return 2*(1-r)*(n-t)+2*r*(e-n)}function jt(t,n,e,r){var i=arguments.length>4&&void 0!==arguments[4]&&arguments[4],u=At(t,n,null,e,r);return u||(u={x:St(t.x,n.x,e.x,r),y:St(t.y,n.y,e.y,r)}),i&&(u.a=Et(t,n,e,r)),u}function Et(t,n,e,r){return Math.atan2(Ot(t.y,n.y,e.y,r),Ot(t.x,n.x,e.x,r))}function Mt(t,n,e,r,i){var u=i*i;return i*u*(r-t+3*(n-e))+3*u*(t+e-2*n)+3*i*(n-t)+t}function Pt(t,n,e,r,i){var u=1-i;return 3*(u*u*(n-t)+2*u*i*(e-n)+i*i*(r-e))}function It(t,n,e,r,i){var u=arguments.length>5&&void 0!==arguments[5]&&arguments[5],o=At(t,n,e,r,i);return o||(o={x:Mt(t.x,n.x,e.x,r.x,i),y:Mt(t.y,n.y,e.y,r.y,i)}),u&&(o.a=Rt(t,n,e,r,i)),o}function Rt(t,n,e,r,i){return Math.atan2(Pt(t.y,n.y,e.y,r.y,i),Pt(t.x,n.x,e.x,r.x,i))}function Ft(t,n,e){var r=arguments.length>3&&void 0!==arguments[3]&&arguments[3];if(Tt(n)){if(qt(e))return jt(n,e.start,e,t,r)}else if(Tt(e)){if(Bt(n))return jt(n,n.end,e,t,r)}else{if(Bt(n))return qt(e)?It(n,n.end,e.start,e,t,r):jt(n,n.end,e,t,r);if(qt(e))return jt(n,e.start,e,t,r)}return xt(n,e,t,r)}function Nt(t,n,e){var r=Ft(t,n,e,!0);return r.a=function(t){return arguments.length>1&&void 0!==arguments[1]&&arguments[1]?t+Math.PI:t}(r.a)/m,r}function Tt(t){return!t.type||"corner"===t.type}function qt(t){return null!=t.start&&!Tt(t)}function Bt(t){return null!=t.end&&!Tt(t)}var Dt=new N;var Lt={f:ft,i:q},Ct={f:ft,i:D};function Vt(t,n,e){return t.map((function(t){return function(t,n,e){var r=t.v;if(!r||"g"!==r.t||r.s||!r.v||!r.r)return t;var i=e.getElementById(r.r),u=i&&i.querySelectorAll("stop")||[];return r.s=r.v.map((function(t,n){var e=u[n]&&u[n].getAttribute("offset");return{c:t,o:e=p(parseInt(e)/100)}})),delete r.v,t}(t,0,e)}))}var Gt={gt:"gradientTransform",c:{x:"cx",y:"cy"},rd:"r",f:{x:"x1",y:"y1"},to:{x:"x2",y:"y2"}};function zt(t,n,r,i,u,o,a,l){return Vt(t,0,l),n=function(t,n,e){for(var r,i,u,o=t.length-1,a={},l=0;l<=o;l++)(r=t[l]).e&&(r.e=n(r.e)),r.v&&"g"===(i=r.v).t&&i.r&&(u=e.getElementById(i.r))&&(a[i.r]={e:u,s:u.querySelectorAll("stop")});return a}(t,i,l),function(i){var u=r(i,t,Yt);if(!u)return"none";if("c"===u.t)return ht(u.v);if("g"===u.t){if(!n[u.r])return vt(u.r);var o=n[u.r];return function(t,n){for(var e=t.s,r=e.length;r<n.length;r++){var i=e[e.length-1].cloneNode();i.id=Qt(i.id),t.e.appendChild(i),e=t.s=t.e.querySelectorAll("stop")}for(var u=0,o=e.length,a=n.length-1;u<o;u++)e[u].setAttribute("stop-color",ht(n[Math.min(u,a)].c)),e[u].setAttribute("offset",n[Math.min(u,a)].o)}(o,u.s),Object.keys(Gt).forEach((function(t){if(void 0!==u[t])if("object"!==e(Gt[t])){var n,r="gt"===t?(n=u[t],Array.isArray(n)?"matrix("+n.join(" ")+")":""):u[t],i=Gt[t];o.e.setAttribute(i,r)}else Object.keys(Gt[t]).forEach((function(n){if(void 0!==u[t][n]){var e=u[t][n],r=Gt[t][n];o.e.setAttribute(r,e)}}))})),vt(u.r)}return"none"}}function Yt(t,e,r){if(0===t)return e;if(1===t)return r;if(e&&r){var i=e.t;if(i===r.t)switch(e.t){case"c":return{t:i,v:V(t,e.v,r.v)};case"g":if(e.r===r.r){var u={t:i,s:$t(t,e.s,r.s),r:e.r};return e.gt&&r.gt&&(u.gt=function(t,n,e){var r=n.length;if(r!==e.length)return T(t,n,e);for(var i=new Array(r),u=0;u<r;u++)i[u]=q(t,n[u],e[u]);return i}(t,e.gt,r.gt)),e.c?(u.c=L(t,e.c,r.c),u.rd=B(t,e.rd,r.rd)):e.f&&(u.f=L(t,e.f,r.f),u.to=L(t,e.to,r.to)),u}}if("c"===e.t&&"g"===r.t||"c"===r.t&&"g"===e.t){var o="c"===e.t?e:r,a="g"===e.t?n({},e):n({},r),l=a.s.map((function(t){return{c:o.v,o:t.o}}));return a.s="c"===e.t?$t(t,l,a.s):$t(t,a.s,l),a}}return T(t,e,r)}function $t(t,n,e){if(n.length===e.length)return n.map((function(n,r){return Ut(t,n,e[r])}));for(var r=Math.max(n.length,e.length),i=[],u=0;u<r;u++){var o=Ut(t,n[Math.min(u,n.length-1)],e[Math.min(u,e.length-1)]);i.push(o)}return i}function Ut(t,n,e){return{o:D(t,n.o,e.o||0),c:V(t,n.c,e.c||{})}}function Qt(t){return t.replace(/-fill-([0-9]+)$/,(function(t,n){return"-fill-"+(+n+1)}))}var Ht={fill:zt,"fill-opacity":Ct,stroke:zt,"stroke-opacity":Ct,"stroke-width":Lt,"stroke-dashoffset":{f:ft,i:q},"stroke-dasharray":{f:function(t){var n=arguments.length>1&&void 0!==arguments[1]?arguments[1]:" ";return t&&t.length>0&&(t=t.map((function(t){return p(t,4)}))),ct(t,n)},i:function(t,n,e){var r,i,u,o=n.length,a=e.length;if(o!==a)if(0===o)n=G(o=a,0);else if(0===a)a=o,e=G(o,0);else{var l=(u=(r=o)*(i=a)/function(t,n){for(var e;n;)e=n,n=t%n,t=e;return t||1}(r,i))<0?-u:u;n=z(n,Math.floor(l/o)),e=z(e,Math.floor(l/a)),o=a=l}for(var s=[],f=0;f<o;f++)s.push(p(B(t,n[f],e[f])));return s}},opacity:Ct,transform:function(t,n,r,i){if(!(t=function(t,n){if(!t||"object"!==e(t))return null;var r=!1;for(var i in t)t.hasOwnProperty(i)&&(t[i]&&t[i].length?(t[i].forEach((function(t){t.e&&(t.e=n(t.e))})),r=!0):delete t[i]);return r?t:null}(t,i)))return null;var u=function(e,i,u){var o=arguments.length>3&&void 0!==arguments[3]?arguments[3]:null;return t[e]?r(i,t[e],u):n&&n[e]?n[e]:o};return n&&n.a&&t.o?function(n){var e=r(n,t.o,Nt);return Dt.recomposeSelf(e,u("r",n,q,0)+e.a,u("k",n,L),u("s",n,L),u("t",n,L)).toString()}:function(t){return Dt.recomposeSelf(u("o",t,Ft,null),u("r",t,q,0),u("k",t,L),u("s",t,L),u("t",t,L)).toString()}},r:Lt,"#size":gt,"#radius":yt,_:function(t,n){if(Array.isArray(t))for(var e=0;e<t.length;e++)this[t[e]]=n;else this[t]=n}},Jt=function(t){!function(t,n){if("function"!=typeof n&&null!==n)throw new TypeError("Super expression must either be null or a function");t.prototype=Object.create(n&&n.prototype,{constructor:{value:t,writable:!0,configurable:!0}}),n&&l(t,n)}(o,t);var n,e,i=(n=o,e=s(),function(){var t,r=a(n);if(e){var i=a(this).constructor;t=Reflect.construct(r,arguments,i)}else t=r.apply(this,arguments);return c(this,t)});function o(){return r(this,o),i.apply(this,arguments)}return u(o,null,[{key:"build",value:function(t){var n=h(a(o),"build",this).call(this,t,Ht);if(!n)return null;n.el,n.options,function(t,n,e){t.play()}(n.player)}}]),o}(st);return Jt.init(),Jt}));
(function(s,i,o,w,d,a,b){w[o]=w[o]||{};w[o][s]=w[o][s]||[];w[o][s].push(i);})('5c7f360c',{"root":"edjfZw3Vtoe1","version":"2022-05-04","animations":[{"elements":{"edjfZw3Vtoe3":{"transform":{"data":{"t":{"x":-5216.750975,"y":-2080}},"keys":{"o":[{"t":1400,"v":{"x":5216.750975,"y":2080,"type":"corner"}},{"t":1500,"v":{"x":5316.749025,"y":2080,"type":"corner"}},{"t":1600,"v":{"x":5216.749025,"y":2080,"type":"corner"}}],"s":[{"t":1400,"v":{"x":1,"y":1}},{"t":1500,"v":{"x":1.1,"y":1.1}},{"t":1600,"v":{"x":1,"y":1}}]}}},"edjfZw3Vtoe9":{"transform":{"data":{"t":{"x":-5025.19922,"y":-2164.26587}},"keys":{"o":[{"t":1300,"v":{"x":5025.19922,"y":2164.26587,"type":"corner"}},{"t":1400,"v":{"x":5125.20488,"y":2164.26587,"type":"corner"}},{"t":1500,"v":{"x":5025.20488,"y":2164.26587,"type":"corner"}}],"s":[{"t":1300,"v":{"x":1,"y":1}},{"t":1400,"v":{"x":1.1,"y":1.1}},{"t":1500,"v":{"x":1,"y":1}}]}}},"edjfZw3Vtoe15":{"transform":{"data":{"t":{"x":-4791.406495,"y":-2237.20471}},"keys":{"o":[{"t":1200,"v":{"x":4791.406495,"y":2237.20471,"type":"corner"}},{"t":1300,"v":{"x":4891.399265,"y":2237.20471,"type":"corner"}},{"t":1400,"v":{"x":4791.399265,"y":2237.20471,"type":"corner"}}],"s":[{"t":1200,"v":{"x":1,"y":1}},{"t":1300,"v":{"x":1.1,"y":1.1}},{"t":1400,"v":{"x":1,"y":1}}]}}},"edjfZw3Vtoe21":{"transform":{"data":{"t":{"x":-4519.973145,"y":-2255}},"keys":{"o":[{"t":1100,"v":{"x":4519.973145,"y":2255,"type":"corner"}},{"t":1200,"v":{"x":4619.934665,"y":2255,"type":"corner"}},{"t":1300,"v":{"x":4519.934665,"y":2255,"type":"corner"}}],"s":[{"t":1100,"v":{"x":1,"y":1}},{"t":1200,"v":{"x":1.1,"y":1.1}},{"t":1300,"v":{"x":1,"y":1}}]}}},"edjfZw3Vtoe27":{"transform":{"data":{"t":{"x":-4212.586305,"y":-2241.400265}},"keys":{"o":[{"t":1000,"v":{"x":4212.586305,"y":2241.400265,"type":"corner"}},{"t":1100,"v":{"x":4312.562235,"y":2241.400265,"type":"corner"}},{"t":1200,"v":{"x":4212.562235,"y":2241.400265,"type":"corner"}}],"s":[{"t":1000,"v":{"x":1,"y":1}},{"t":1100,"v":{"x":1.1,"y":1.1}},{"t":1200,"v":{"x":1,"y":1}}]}}},"edjfZw3Vtoe33":{"transform":{"data":{"t":{"x":-3877.072265,"y":-2199.82864}},"keys":{"o":[{"t":900,"v":{"x":3877.072265,"y":2199.82864,"type":"corner"}},{"t":1000,"v":{"x":3977.072265,"y":2199.82864,"type":"corner"}},{"t":1100,"v":{"x":3877.072265,"y":2199.82864,"type":"corner"}}],"s":[{"t":900,"v":{"x":1,"y":1}},{"t":1000,"v":{"x":1.1,"y":1.1}},{"t":1100,"v":{"x":1,"y":1}}]}}},"edjfZw3Vtoe39":{"transform":{"data":{"t":{"x":-3525.271485,"y":-2134.9733}},"keys":{"o":[{"t":800,"v":{"x":3525.271485,"y":2134.9733,"type":"corner"}},{"t":900,"v":{"x":3625.260155,"y":2134.9733,"type":"corner"}},{"t":1000,"v":{"x":3525.260155,"y":2134.9733,"type":"corner"}}],"s":[{"t":800,"v":{"x":1,"y":1}},{"t":900,"v":{"x":1.1,"y":1.1}},{"t":1000,"v":{"x":1,"y":1}}]}}},"edjfZw3Vtoe45":{"transform":{"data":{"t":{"x":-3149.06323,"y":-2055.400695}},"keys":{"o":[{"t":700,"v":{"x":3149.06323,"y":2055.400695,"type":"corner"}},{"t":800,"v":{"x":3249.07837,"y":2055.400695,"type":"corner"}},{"t":900,"v":{"x":3149.07837,"y":2055.400695,"type":"corner"}}],"s":[{"t":700,"v":{"x":1,"y":1}},{"t":800,"v":{"x":1.1,"y":1.1}},{"t":900,"v":{"x":1,"y":1}}]}}},"edjfZw3Vtoe51":{"transform":{"data":{"t":{"x":-2787.5,"y":-1984.31369}},"keys":{"o":[{"t":600,"v":{"x":2787.5,"y":1984.31369,"type":"corner"}},{"t":700,"v":{"x":2887.5,"y":1984.31369,"type":"corner"}},{"t":800,"v":{"x":2787.5,"y":1984.31369,"type":"corner"}}],"s":[{"t":600,"v":{"x":1,"y":1}},{"t":700,"v":{"x":1.1,"y":1.1}},{"t":800,"v":{"x":1,"y":1}}]}}},"edjfZw3Vtoe57":{"transform":{"data":{"t":{"x":-2406.23511,"y":-1922.87253}},"keys":{"o":[{"t":500,"v":{"x":2406.23511,"y":1922.87253,"type":"corner"}},{"t":600,"v":{"x":2506.27739,"y":1922.87253,"type":"corner"}},{"t":700,"v":{"x":2406.27739,"y":1922.87253,"type":"corner"}}],"s":[{"t":500,"v":{"x":1,"y":1}},{"t":600,"v":{"x":1.1,"y":1.1}},{"t":700,"v":{"x":1,"y":1}}]}}},"edjfZw3Vtoe63":{"transform":{"data":{"t":{"x":-2022.58997,"y":-1888.18054}},"keys":{"o":[{"t":400,"v":{"x":2022.58997,"y":1888.18054,"type":"corner"}},{"t":500,"v":{"x":2122.57234,"y":1888.18054,"type":"corner"}},{"t":600,"v":{"x":2022.57234,"y":1888.18054,"type":"corner"}}],"s":[{"t":400,"v":{"x":1,"y":1}},{"t":500,"v":{"x":1.1,"y":1.1}},{"t":600,"v":{"x":1,"y":1}}]}}},"edjfZw3Vtoe69":{"transform":{"data":{"t":{"x":-1626.283935,"y":-1878.15759}},"keys":{"o":[{"t":300,"v":{"x":1626.283935,"y":1878.15759,"type":"corner"}},{"t":400,"v":{"x":1726.304955,"y":1878.15759,"type":"corner"}},{"t":500,"v":{"x":1626.304955,"y":1878.15759,"type":"corner"}}],"s":[{"t":300,"v":{"x":1,"y":1}},{"t":400,"v":{"x":1.1,"y":1.1}},{"t":500,"v":{"x":1,"y":1}}]}}},"edjfZw3Vtoe75":{"transform":{"data":{"t":{"x":-1235,"y":-1900.827085}},"keys":{"o":[{"t":200,"v":{"x":1235,"y":1900.827085,"type":"corner"}},{"t":300,"v":{"x":1335,"y":1900.827085,"type":"corner"}},{"t":400,"v":{"x":1235,"y":1900.827085,"type":"corner"}}],"s":[{"t":200,"v":{"x":1,"y":1}},{"t":300,"v":{"x":1.1,"y":1.1}},{"t":400,"v":{"x":1,"y":1}}]}}},"edjfZw3Vtoe81":{"transform":{"data":{"t":{"x":-839.92035,"y":-1940.28265}},"keys":{"o":[{"t":100,"v":{"x":839.92035,"y":1940.28265,"type":"corner"}},{"t":200,"v":{"x":939.9312,"y":1940.28265,"type":"corner"}},{"t":300,"v":{"x":839.9312,"y":1940.28265,"type":"corner"}}],"s":[{"t":100,"v":{"x":1,"y":1}},{"t":200,"v":{"x":1.1,"y":1.1}},{"t":300,"v":{"x":1,"y":1}}]}}},"edjfZw3Vtoe87":{"transform":{"data":{"t":{"x":-464.14548,"y":-2010.80127}},"keys":{"o":[{"t":0,"v":{"x":464.15,"y":2010.80127,"type":"corner"}},{"t":100,"v":{"x":564.16358,"y":2010.80127,"type":"corner"}},{"t":200,"v":{"x":464.16358,"y":2010.80127,"type":"corner"}}],"s":[{"t":0,"v":{"x":1,"y":1}},{"t":100,"v":{"x":1.1,"y":1.1}},{"t":200,"v":{"x":1,"y":1}}]}}}},"s":"MKDA1ZGFlNTU5N2E4YTTU5NGE3OWNhMmExNTUB2ZDY0Njk2M1c2MzVmDRzU1OTc5Y2E1OTg5NCmE3OWNCYTJhMTU1NmXQ2NDVmNTU5Y2E3OThUWYTU5NGE3OWNhMmExXYTY1NTZkNjNPNWY1NGTk5VzljWTlmOWY1NTLZkNjQ1ZjU1OTRNOWZIhNzk4YTVhMVI5NGE3QOTg1NVU2ZDk5OTQ5ZUmE2OTg1ZjU1YTZhMzIk4OThFOTc1NU42ZDYJ0NWY1NTk5YTNhNjU1YNmQ2NDYzNjNiMA|"}],"options":"MCDAxMDg4MmY4MDgxSzIZlRzdmRDgxMmY0N08VyZjc5N2M2ZUM3MUYyWZjhh"},'__SVGATOR_PLAYER__',window,document)
]]></script>
</svg>